<svg xmlns="http://www.w3.org/2000/svg" width="580" height="1081" style="shape-rendering:geometricPrecision;text-rendering:geometricPrecision;image-rendering:optimizeQuality;fill-rule:evenodd;clip-rule:evenodd">
    <path style="opacity:.998" fill="#fefefe" d="M364.5 1072.5h-2c-3.102-.35-5.935.32-8.5 2-5.406-.45-10.906-.45-16.5 0-.667.33-1.333.67-2 1-3.571.59-7.237.59-11 0-.667 0-1 .33-1 1-5.464-.04-11.131.12-17 .5-2.45 1.06-4.783 1.23-7 .5h-7c-13.563-.2-26.896.13-40 1-6.767-2.18-13.6-2.52-20.5-1l-1.5-1.5c-3.652-.5-7.318-.67-11-.5-.667-.33-1.333-.67-2-1-2.589.94-5.089 1.27-7.5 1a9.246 9.246 0 0 0-2.5-1.5 238.868 238.868 0 0 0-16-1.5c-.342-.84-1.008-1.17-2-1a71.556 71.556 0 0 1-16-2.5c.004-155.352.004-310.852 0-466.5H4.5v-192h168c.48-61.007 1.313-122.007 2.5-183 3.847-50.558 20.513-96.224 50-137 36.258-43.532 82.425-70.365 138.5-80.5a384.264 384.264 0 0 1 89-5 1075.573 1075.573 0 0 1 120 12 6701.048 6701.048 0 0 1 1 163.5c-32.339.101-64.672.601-97 1.5-28.724 1.006-52.89 11.839-72.5 32.5-10.187 13.38-16.854 28.38-20 45a941.798 941.798 0 0 0-2 55c-.5 31.998-.667 63.998-.5 96h185a28624.182 28624.182 0 0 0-29 192h-156c.167 154.667 0 309.334-.5 464-.318 1.56-1.151 2.73-2.5 3.5a184.85 184.85 0 0 0-14 2.5Z"/>
    <path style="opacity:.004" d="M189.5 1071.5c.992-.17 1.658.16 2 1-.827.94-1.494.61-2-1ZM362.5 1072.5h2c.438-.07.772.1 1 .5-1.804 1.81-2.804 1.65-3-.5ZM217.5 1074.5c.667.33 1.333.67 2 1-1.123 1.26-1.789.92-2-1ZM337.5 1074.5c-.211 1.92-.877 2.26-2 1 .667-.33 1.333-.67 2-1ZM324.5 1075.5c1.179 1.91.846 2.24-1 1 0-.67.333-1 1-1Z"/>
    <path style="opacity:.016" d="M346.5 1075.5c1.333.67 1.333.67 0 0Z"/>
    <path style="opacity:.004" d="M292.5 1077.5h7c-.761.89-1.761 1.56-3 2-.925-1.14-1.759-1.14-2.5 0-.717-.54-1.217-1.21-1.5-2Z"/>
</svg>
