<svg xmlns="http://www.w3.org/2000/svg" width="512" height="512">
    <path d="M232 1.682c-18.248 3.212-38.049 11.211-54 21.814-9.86 6.554-28.38 25.005-34.898 34.769-29.434 44.093-29.588 97.754-.408 142.1 6.084 9.246 25.72 28.796 35.306 35.152C201.763 251.272 227.431 259 256 259c28.337 0 53.99-7.655 77.5-23.125 10.222-6.727 28.675-25.07 35.493-35.282 7.816-11.705 14.71-26.943 18.236-40.306 2.93-11.104 3.113-12.859 3.158-30.287.041-16.183-.248-19.69-2.311-28-6.334-25.526-18.038-45.963-36.614-63.933-19.759-19.115-44.939-31.799-72.388-36.465-11.828-2.01-35.426-1.97-47.074.08m12.205 65.365c-13.592 2.437-27.22 9.939-36.946 20.335-7.19 7.686-10.365 12.987-13.912 23.228-2.343 6.763-2.73 9.461-2.711 18.89.019 9.178.461 12.325 2.671 19 6.476 19.564 22.876 35.202 43.693 41.666 6.018 1.868 9.773 2.328 19 2.328 19.404 0 33.511-5.818 47.063-19.409 12.809-12.846 18.234-25.614 18.308-43.085.075-17.786-5.493-31.182-18.327-44.085C290.526 73.329 276.725 67.244 259 66.497c-5.225-.22-11.883.028-14.795.55M121.734 258.046c-14.235 3.512-24.449 16.18-25.499 31.627-.624 9.174 1.697 14.379 10.205 22.887 6.71 6.709 24.458 18.892 37.56 25.78 16.718 8.789 39.121 15.612 64.5 19.644 7.15 1.136 14.722 2.392 16.827 2.791l3.827.725-48.827 46.791c-26.855 25.736-50.728 49.025-53.051 51.755-5.113 6.009-7.8 14.115-6.887 20.775 1.527 11.145 10.009 22.282 21.124 27.739 5.21 2.559 7.089 2.938 14.487 2.926 7.24-.012 9.241-.405 13.5-2.653 3.389-1.788 17.891-15.099 45-41.3 22-21.264 40.553-38.902 41.228-39.196.695-.302 18.634 16.345 41.289 38.314 46.583 45.173 47.347 45.744 60.483 45.188 9.763-.414 17.628-3.869 24.53-10.779 6.407-6.413 9.341-12.919 9.804-21.739.647-12.312-.518-13.963-29.922-42.38a16317.28 16317.28 0 0 0-52.019-50c-14.634-13.993-26.552-25.523-26.485-25.622.067-.1 4.165-.705 9.107-1.345 25.151-3.256 53.136-10.892 71.097-19.4 20.692-9.802 45.325-28.581 49.942-38.074 3.091-6.353 2.687-18.36-.863-25.661-5.958-12.255-16.532-19.198-29.145-19.139-9.401.044-15.815 2.473-29.162 11.044-17.908 11.501-31.365 17.471-50.975 22.614-16.259 4.265-29.269 5.878-47.409 5.878-18.542 0-31.494-1.654-48.5-6.195-19.104-5.101-32.648-11.158-49.64-22.201-14.998-9.746-26.474-13.175-36.126-10.794" fill="#fff" fill-rule="evenodd"/>
</svg>
