<svg xmlns="http://www.w3.org/2000/svg" width="342" height="214" style="shape-rendering:geometricPrecision;text-rendering:geometricPrecision;image-rendering:optimizeQuality;fill-rule:evenodd;clip-rule:evenodd">
    <path style="opacity:.981" fill="#fefefe" d="M9.5-.5h46c1.187 1.034 2.02 2.367 2.5 4 .25 32.252 7.25 62.92 21 92 10.036 18.033 23.536 32.867 40.5 44.5a96.468 96.468 0 0 0 17 7.5 4.933 4.933 0 0 0 2.5-1c.5-48.665.667-97.332.5-146h55c.209 26.698.209 53.364 0 80 .401 2.447 1.901 3.447 4.5 3 17.092-4.09 31.426-12.757 43-26 14.06-15.759 24.393-33.759 31-54l2.5-2.5c2.536-.186 4.869-.686 7-1.5h42c.709.904 1.709 1.237 3 1-5.23 28.459-17.397 53.459-36.5 75L274.5 92a337.753 337.753 0 0 1-18 13.5c38.475 22.316 65.642 54.316 81.5 96a28.778 28.778 0 0 1 2.5 11c-19.669.167-39.336 0-59-.5-9.788-31.928-29.788-54.928-60-69a123.787 123.787 0 0 0-26-6.5 1579.445 1579.445 0 0 0-1 76c-92.448.89-152.948-42.443-181.5-130C5.082 55.742.916 28.409.5.5c3.213.31 6.213-.023 9-1Z"/>
</svg>
