<svg xmlns="http://www.w3.org/2000/svg" width="512" height="512">
    <path d="M354.5 1.591c-17.875 3.154-35.73 10.402-51.937 21.084-8.82 5.813-15.942 12.511-57.661 54.229-26.18 26.178-49.907 50.746-52.727 54.596-10.963 14.965-20.039 35.997-23.833 55.23-2.628 13.322-2.366 37.626.552 51.27 4.343 20.305 14.566 42.804 22.562 49.655C195.433 291.062 203.093 294 208 294c10.245 0 21.185-8.019 24.482-17.945 2.541-7.652 1.628-13.894-3.535-24.152-2.326-4.622-5.273-11.467-6.548-15.212-8.016-23.531-4.008-51.353 10.427-72.369 2.2-3.202 24.626-26.349 49.837-51.438 50.363-50.12 51.281-50.875 69.337-57.009 8.297-2.819 11.147-3.282 22.5-3.654 10.803-.355 14.5-.069 21.877 1.688 30.692 7.31 54.385 30.963 61.695 61.591 1.805 7.565 2.074 11.073 1.689 22-.397 11.251-.889 14.278-3.661 22.5-5.77 17.118-8.212 20.267-42.759 55.125-34.189 34.497-35.709 36.487-35.772 46.875-.048 7.894 2.668 14.128 8.401 19.283 5.474 4.921 10.339 6.717 18.2 6.717 9.932 0 12.436-1.96 46.954-36.741 26.123-26.324 32.657-33.481 38.175-41.822C504.855 185.925 512 162.34 512 134.5c0-36.902-13.767-70.062-39.718-95.664-20.059-19.791-45.082-32.7-72.208-37.254-11.623-1.951-34.492-1.946-45.574.009m-58.86 218.041c-6.675 2.05-13.768 9.227-16.122 16.313-2.591 7.802-1.645 13.851 3.89 24.872 7.283 14.502 9.82 24.387 9.928 38.683.101 13.296-1.102 20.234-5.497 31.709-5.657 14.769-9.432 19.146-58.968 68.374-45.686 45.403-46.504 46.151-55.371 50.649-13.978 7.091-20.916 8.921-36 9.494-11 .418-14.385.163-22-1.654A83.083 83.083 0 0 1 53.928 396.5c-1.805-7.565-2.074-11.073-1.689-22 .397-11.251.889-14.278 3.661-22.5 5.561-16.499 8.793-20.837 36.126-48.5 15.102-15.283 25.554-26.678 26.894-29.318 8.766-17.279-3.886-37.678-23.256-37.495-10.47.098-13.18 2.101-41.223 30.466-31.963 32.331-39.942 43.814-48.353 69.591-6.055 18.555-7.831 43.52-4.506 63.33 8.21 48.911 43.361 89.728 90.774 105.407 13.802 4.564 26.44 6.519 42.144 6.519 27.822 0 51.372-7.129 74.937-22.686 8.713-5.752 16.21-12.756 55.902-52.228 49.219-48.948 56.401-57.152 65.444-74.759 10.521-20.482 14.614-37.832 14.587-61.827-.021-18.82-2.14-30.711-8.46-47.482-7.763-20.601-15.279-30.565-25.298-33.541-6.106-1.813-9.678-1.778-15.972.155" fill="#fffcfc" fill-rule="evenodd"/>
</svg>
