<svg xmlns="http://www.w3.org/2000/svg" width="512" height="512">
    <path d="M217 .608C132.665 10.414 62.769 59.167 26.475 133.5 15.482 156.014 8.259 179.066 4.385 204c-2.486 15.997-2.532 50.995-.089 67 3.951 25.881 11.544 50.235 22.673 72.725l6.682 13.503-16.749 61.129C7.69 451.978.334 479.667.555 479.888c.22.221 28.649-7.015 63.173-16.08l62.772-16.482 8.817 4.387c54.176 26.952 119.227 31.838 177.014 13.296 52.03-16.695 96.588-50.567 126.959-96.509 19.347-29.266 32.715-65.202 37.199-100 2.147-16.658 2.152-44.844.011-61-9.209-69.498-46.353-129.108-104.824-168.227-20.379-13.633-47.802-25.945-71.016-31.882C280.003 2.107 270.078.896 244.5.538c-13.2-.185-25.575-.154-27.5.07m-4.5 41.958c-56.38 8.6-105.16 39.415-136.033 85.934-16.335 24.612-25.948 49.008-31.131 79-2.406 13.919-2.406 47.081 0 61 4.633 26.812 12.582 48.58 25.961 71.095l6.593 11.096-9.843 35.904c-5.414 19.748-9.77 35.987-9.68 36.087.09.1 16.312-4.063 36.049-9.25 19.737-5.188 36.552-9.432 37.366-9.432.814 0 5.401 2.243 10.193 4.985 64.702 37.027 145.484 34.458 207.013-6.583 51.965-34.663 84.164-90.376 87.968-152.21 3.522-57.25-16.893-111.185-57.428-151.72-31.604-31.605-71.177-50.936-115.502-56.423-11.628-1.44-40.604-1.149-51.526.517m-65.573 87.411c-5.044 2.667-15.151 13.801-19.275 21.234-6.006 10.825-8.119 19.517-8.094 33.289.017 9.313.521 13.791 2.255 20 7.812 27.988 39.126 70.636 73.503 100.109 22.779 19.529 43.841 31.128 76.184 41.955 26.754 8.956 46.548 8.005 65.029-3.124 13.83-8.328 18.934-14.556 22.372-27.298 2.343-8.681 2.766-19.874.849-22.418-1.563-2.073-48.723-25.163-54.496-26.682-2.961-.779-4.832-.803-6.183-.08-1.066.571-6.196 6.325-11.4 12.788-12.349 15.334-14.767 17.58-18.801 17.465-4.624-.131-29.796-12.994-40.256-20.571-4.888-3.539-12.705-10.195-17.371-14.79-15.16-14.926-31.084-37.366-29.891-42.122.315-1.254 3.089-5.42 6.165-9.256C196.381 199.419 201 192.041 201 188.939c0-1.558-3.87-12.194-8.599-23.636-12.459-30.139-13.411-32.134-16.633-34.845-2.73-2.297-3.653-2.455-14.095-2.414-8.966.036-11.879.417-14.746 1.933" fill="#fffcfc" fill-rule="evenodd"/>
</svg>
