<svg xmlns="http://www.w3.org/2000/svg" width="512" height="451" style="shape-rendering:geometricPrecision;text-rendering:geometricPrecision;image-rendering:optimizeQuality;fill-rule:evenodd;clip-rule:evenodd">
    <path style="opacity:.987" fill="#fefefe" d="M511.5 12.5v13a143767.61 143767.61 0 0 0-80.5 403c-10.214 18.587-25.048 23.421-44.5 14.5a30756.09 30756.09 0 0 1-187-144 50666.2 50666.2 0 0 0 225-202A85.365 85.365 0 0 0 435 85.5c1.494-5.836-.673-8.002-6.5-6.5a68.695 68.695 0 0 0-14 7A42168.455 42168.455 0 0 1 130 266.5 10916.698 10916.698 0 0 0 18.5 229c-8.48-3.209-14.813-8.709-19-16.5v-11c4.302-6.127 9.969-10.627 17-13.5a191723.091 191723.091 0 0 0 459-180c9.846-4.428 19.846-5.095 30-2 2.356 1.914 4.356 4.08 6 6.5Z"/>
</svg>
