<svg version="1.0" xmlns="http://www.w3.org/2000/svg" width="2469.333" height="382.667" viewBox="0 0 1852 287">
    <path d="M225 141v137h60V4h-60v137zM1325 140.9c0 108.6.3 137 1.3 137.4.6.2 13 .2 27.5-.1l26.2-.5V4h-55v136.9zM1644 141v137h52v-23.9l8.3 8.3c14.1 14.3 30.6 20.6 54.1 20.6 24.2 0 40.9-6.6 57.2-22.5 18.6-18.2 27.8-39.9 30.4-71.6 2.4-29.4-3.8-57.5-17.1-78-12.6-19.3-28.9-30.6-50.2-34.6-10.1-1.9-31.2-1.3-40.2 1.1-13.1 3.6-27.3 12.1-35.8 21.5l-3.7 4.1V4h-55v137zm117.5-21c7.7 3 17.9 12.9 22.4 21.8 5.5 11 7.4 21.4 6.8 38.7-.3 9.7-1 17.1-2.1 20.9-4.4 15.7-13.7 28.1-25.4 33.8-6.4 3.2-7.1 3.3-19.2 3.3-11.5 0-13-.2-18.3-2.7-7.4-3.5-16.6-12.3-20.5-19.6-5.9-11.1-7.7-19.7-7.7-38.2 0-12.7.4-18 1.8-23 5-18.6 15.4-30.6 31.2-36.3 7.2-2.5 22.7-1.9 31 1.3zM1203.7 19.7c-.4.3-.7 13.8-.7 29.9V79l-16.2.2-16.3.3-.3 18.2-.2 18.3h33v52.7c0 57.1.8 71.4 4.6 83.3 5 15.8 14.2 23 33.8 26.5 9.3 1.6 34.9 2 48.9.9l7.7-.7v-41.3l-10.8.4c-12.6.5-21-.9-24-4.1-5.2-5.5-5.2-5.6-5.2-63.7v-54h40V79h-40V19h-26.8c-14.8 0-27.2.3-27.5.7zM434 75.5c-17.2 3.5-29.9 10.7-42.7 24.4l-6.3 6.6V79h-52v199h55v-59.8c0-65.4.2-67.7 5.9-78.9 6-11.9 17.1-18.8 32.1-20 15.9-1.2 27.2 3.1 32.2 12.4 5.7 10.3 5.8 12 5.8 82V278h56v-69.9c0-44.1-.4-72.8-1.1-77.6-4.9-35.8-30.5-56.8-68.8-56.4-5.3 0-12.5.7-16.1 1.4zM835 74.6c-21.4 4.1-39.1 13.5-53.1 28.1-12.6 13.2-20.7 27.9-25.7 46.1-2.4 9-2.6 11.2-2.6 31.2s.2 22.2 2.6 31.1c4.7 17.5 12 30.8 23.4 42.9 16.4 17.3 35.9 26.4 63.1 29.2 20.4 2.1 40.5-1.2 57.8-9.7 20.6-10.1 34.2-24.7 43.3-46.7 1.8-4.2 3.2-8.4 3.2-9.2 0-1.4-3-1.6-25.8-1.6h-25.8l-2.7 5.6c-4 8.2-12.4 16.6-20 19.9-4.9 2.3-8.1 2.9-15.7 3.3-28.6 1.4-45.2-14.2-48.5-45.6l-.7-6.2h71.1c63.9 0 71.2-.2 71.8-1.6.8-2.2-1.4-29-3.2-37.6-8.3-39.8-32.3-67.2-67.1-76.9-6.5-1.8-11.1-2.2-25.4-2.5-9.6-.1-18.6 0-20 .2zm33.3 41.4c8.6 3.2 15.9 10.5 20.6 20.4 3.5 7.2 6.1 15.9 6.1 20.1 0 1.3-6.2 1.5-43.5 1.5h-43.4l.5-3.3c3.7-21.8 16.5-36.9 34.4-40.7 6.6-1.4 18.9-.4 25.3 2zM1043 74.5c-.8.2-4.9.9-9 1.5-17.5 2.9-33.4 10.5-43.1 20.7-9.9 10.3-14.2 21.8-14.3 37.3 0 13 1.6 19.6 6.7 27.1 6.1 9.1 9.4 12.1 19.9 17.7 9.5 5.1 21.8 9.1 40.3 13.2 33.6 7.4 49.1 12.3 54.2 17.2 8.4 8.1 5.7 23.6-5.4 30.6-7.1 4.5-14.2 6.2-25.4 6.2-24.9 0-38.1-8.6-41.9-27.3l-1.1-5.7h-52.1l.7 6.7c3.4 33.5 23.5 52.9 63.7 61.4 14.9 3.2 43.7 3.2 58.7 0 39.4-8.4 61-31.1 61.1-64.1 0-15.2-4.9-27.8-15-38.1-9.9-10.1-27.4-16.9-61.5-24-42.1-8.7-49-12.3-48.9-25.4.1-13.6 12.2-20.4 34.6-19.3 19.4 1 29.6 8 32.6 22.5l.8 3.8 25.7.3 25.7.2-.6-4.7c-1.7-13.8-6.5-25.7-13.6-33.8-5.5-6.2-16.7-13.6-26.6-17.4-13.6-5.2-20.7-6.3-43.7-6.6-11.5-.2-21.7-.2-22.5 0zM1485.5 75.9c-37.7 7-57.7 26.3-62.1 59.8l-.7 5.3h51.2l1.1-4.3c4.3-16.9 11-23.1 28.1-25.8 16-2.5 31.9.9 39.5 8.5 4.7 4.6 6.4 9.3 6.4 17.7 0 13.9-8.1 17.7-49 23.4-20.4 2.9-38.2 6.5-47.7 9.6-12.5 4.1-27.9 16.6-32.7 26.5-5.7 11.5-7 31.9-3 45.4 8.7 29.5 40.3 45.7 80.5 41.1 17.8-2.1 32.3-7.9 45.1-18.2 3.3-2.7 6.4-4.7 6.8-4.4.4.2 1 2.6 1.3 5.2.4 2.6 1.1 6.5 1.7 8.6l1.1 3.7h55.1l-.6-2.3c-.4-1.2-1.6-6.2-2.8-11.2-2-8.4-2.1-13-2.8-74-.6-56.5-.9-65.8-2.4-71-5.3-18.9-18.1-32.4-37.4-39.1-13.8-4.8-19.5-5.5-43.7-6-19.3-.3-24.6-.1-33 1.5zm63.5 118.9c0 7.1-.5 15.5-1.1 18.8-3.2 17.6-17.4 30.5-36.9 33.5-19.2 2.9-33.6-2.6-38.7-15-2.1-4.9-2-16.6.1-21.6.9-2.2 3.1-5.4 4.8-7.2 5.3-5.5 11.6-7.4 44.3-13.7 7.2-1.4 16-3.6 19.5-4.9 3.6-1.4 6.8-2.5 7.3-2.6.4 0 .7 5.7.7 12.7zM542 79.3c0 .6 65.9 192.8 67.1 196l1.2 2.7 30.6-.2 30.6-.3 33.2-98C723 125.6 738 80.9 738 80.2c0-.9-6-1.2-26.8-1.2h-26.8l-20.9 67c-11.5 36.9-21.2 67-21.5 67-.3 0-9.9-30.2-21.4-67l-21-67h-28.8c-15.8 0-28.8.2-28.8.3zM117 183v94h60V89h-60v94zM6 227.5V277h61v-99H6v49.5z"/>
</svg>
