<svg xmlns="http://www.w3.org/2000/svg" width="1848" height="287" style="shape-rendering:geometricPrecision;text-rendering:geometricPrecision;image-rendering:optimizeQuality;fill-rule:evenodd;clip-rule:evenodd">
    <path style="opacity:.973" fill="#fefffe" d="M220.5 1.5h62c.333 92.002 0 184.002-1 276a947.079 947.079 0 0 0-61-1V1.5Z"/>
    <path style="opacity:.971" fill="#fefffe" d="M1321.5 1.5h56v276h-56V1.5Z"/>
    <path style="opacity:.978" fill="#fefffe" d="M1640.5 1.5h55c-.17 33.002 0 66.002.5 99 16.13-18.95 36.79-28.282 62-28 36.33.818 61.66 17.818 76 51 12.64 34.994 12.64 69.994 0 105-19.13 41.152-51.29 58.652-96.5 52.5-17.89-3.358-32.39-12.191-43.5-26.5-.5 7.659-.67 15.326-.5 23h-53V1.5Zm95 114c24.89-.467 41.06 11.2 48.5 35 4.67 16.995 4.67 33.995 0 51-10.66 31.748-31.83 42.248-63.5 31.5-12.06-7.247-19.89-17.747-23.5-31.5-6.48-24.314-3.48-47.314 9-69 7.77-9.461 17.6-15.127 29.5-17Z"/>
    <path style="opacity:.98" fill="#fefffe" d="M1199.5 17.5h55v60h41v38h-41c-.17 34.668 0 69.335.5 104 .09 8.033 3.92 13.2 11.5 15.5 9.66.5 19.33.666 29 .5v42a217.732 217.732 0 0 1-61-.5c-16.74-2.08-27.24-11.247-31.5-27.5a94.266 94.266 0 0 1-3-17c-.5-38.999-.67-77.999-.5-117h-33v-38h33v-60Z"/>
    <path style="opacity:.981" fill="#fefffe" d="M445.5 71.5c23.569-.876 43.069 7.458 58.5 25 6.365 9.759 10.365 20.426 12 32 .5 49.666.667 99.332.5 149h-56c.167-42.335 0-84.668-.5-127-.575-10.07-4.075-18.904-10.5-26.5-6.857-4.422-14.357-6.256-22.5-5.5-26.071 1.069-40.071 14.736-42 41a6958.7 6958.7 0 0 0-.5 118h-55v-200h53a313 313 0 0 0 .5 25c16.15-19.825 36.983-30.158 62.5-31Z"/>
    <path style="opacity:.973" fill="#fefffe" d="M838.5 71.5c52.666-3.11 87.166 20.223 103.5 70a172.696 172.696 0 0 1 5.5 50h-142c-.304 12.116 2.529 23.45 8.5 34 9.232 11.699 21.399 17.699 36.5 18 20.134-.488 33.467-10.155 40-29h54c-10.358 36.856-34.358 59.022-72 66.5-32.679 5.935-62.346-.732-89-20-26.663-24.971-38.163-55.804-34.5-92.5 2.997-41.193 22.83-71.026 59.5-89.5 9.865-3.6 19.865-6.1 30-7.5Zm2 41c30.162-1.512 46.828 12.821 50 43h-85c2.002-22.398 13.668-36.731 35-43ZM1046.5 71.5c26.1-2.151 50.77 2.682 74 14.5 17.49 12.144 26.16 28.977 26 50.5h-52c-.96-13.109-7.62-21.609-20-25.5-14.24-4.13-27.9-2.797-41 4-6.48 6.606-7.64 14.106-3.5 22.5a31.84 31.84 0 0 0 7.5 5.5 576.151 576.151 0 0 0 62 15 146.06 146.06 0 0 1 30 12c19.83 14.538 27.33 34.038 22.5 58.5-3.67 17.005-12.84 30.172-27.5 39.5-14.22 8.296-29.56 12.963-46 14-22.21 2.379-43.87.045-65-7-30.028-10.526-45.028-31.693-45-63.5h53c.89 17.396 9.89 27.896 27 31.5 15.37 3.605 29.7 1.271 43-7 9.28-10.072 9.28-20.072 0-30a98.066 98.066 0 0 0-18-7c-21.47-4.827-42.8-10.16-64-16-34.358-14.239-45.191-39.072-32.5-74.5 10.571-18.39 26.4-29.556 47.5-33.5a603.548 603.548 0 0 1 22-3.5Z"/>
    <path style="opacity:.974" fill="#fefffe" d="M1497.5 71.5c20.71-1.13 41.04 1.037 61 6.5 22.6 7.941 35.77 23.774 39.5 47.5.33 37.333.67 74.667 1 112a150.851 150.851 0 0 0 6.5 40c-18.67.167-37.34 0-56-.5a84.364 84.364 0 0 1-4.5-18.5c-13.68 13.586-30.18 21.42-49.5 23.5-17.84 2.08-35.17.08-52-6-26.9-13.966-37.73-36.132-32.5-66.5 1.94-13.934 8.77-24.767 20.5-32.5 12.73-8.355 26.73-13.355 42-15a612.562 612.562 0 0 0 58-10c12.54-4.271 16.71-12.771 12.5-25.5-4.11-9.984-11.61-15.484-22.5-16.5-9.39-.853-18.72-.519-28 1-13.91 4.269-21.24 13.769-22 28.5h-52c1-30.825 16-51.325 45-61.5 10.93-3.245 21.93-5.411 33-6.5Zm45 110c1.33 4.619 1.99 9.619 2 15 2.28 22.623-7.05 38.123-28 46.5-11.69 3.272-23.36 3.272-35 0-11.37-6.576-15.87-16.41-13.5-29.5 1.14-6.143 4.31-10.976 9.5-14.5a71.538 71.538 0 0 1 18-6 482.13 482.13 0 0 0 39-8c2.98-.705 5.64-1.871 8-3.5Z"/>
    <path style="opacity:.975" fill="#fefffe" d="M537.5 78.5a443.803 443.803 0 0 1 59.5 0 9982.353 9982.353 0 0 0 41.5 131 9982.353 9982.353 0 0 0 41.5-131 777.794 777.794 0 0 1 55.5-1l-67 200a985.248 985.248 0 0 1-62.5-1 22961.569 22961.569 0 0 0-68.5-198Z"/>
    <path style="opacity:.978" fill="#fefffe" d="M112.5 87.5h61v189h-61v-189Z"/>
    <path style="opacity:.974" fill="#fefffe" d="M1.5 176.5h62v100h-62v-100Z"/>
</svg>
